# xmcd
#
# Track frame offsets:
#	150
#	18030
#	36276
#	53390
#	74004
#	94780
#	114964
#	132806
#	152512
#	171545
#	192394
#	214448
#	231094
#	247256
#	261200
#	279970
#	296940
#	317318
#
# Disc length: 4457 seconds
#
# Revision: 0
# Processed by: cddbd v1.4PL0 Copyright (c) Steve Scherf et al.
# Submitted via: EasyCDDAExtractor 4.6.0.1
#
DISCID=06116712
DTITLE=Laura Pausini - Lo Mejor De Laura Pausini
DYEAR=1900
DGENRE=
TTITLE0=Volvere Junto A Ti
TTITLE1=Quiero Decirte Que Te Amo
TTITLE2=Entre Tu Mi Mil Mares
TTITLE3=Emergencia De Amor
TTITLE4=Escucha Tu Corazon
TTITLE5=Ausencia De Ti
TTITLE6=La Soledad
TTITLE7=Las Cosas Que Vives
TTITLE8=Amores Extranos
TTITLE9=Se Fue
TTITLE10=Un Dia Sin Ti
TTITLE11=La Carta
TTITLE12=Cuando Se Ama
TTITLE13=Un Error De Los Grrandes
TTITLE14=Como Se Hara
TTITLE15=Inolvidable
TTITLE16=Dos Enamorados
TTITLE17=Fiate De Mi
EXTD=
EXTT0=
EXTT1=
EXTT2=
EXTT3=
EXTT4=
EXTT5=
EXTT6=
EXTT7=
EXTT8=
EXTT9=
EXTT10=
EXTT11=
EXTT12=
EXTT13=
EXTT14=
EXTT15=
EXTT16=
EXTT17=
PLAYORDER=
